<?xml version="1.0" encoding="UTF-8" standalone="no"?>
<svg
   xmlns:dc="http://purl.org/dc/elements/1.1/"
   xmlns:cc="http://creativecommons.org/ns#"
   xmlns:rdf="http://www.w3.org/1999/02/22-rdf-syntax-ns#"
   xmlns:svg="http://www.w3.org/2000/svg"
   xmlns="http://www.w3.org/2000/svg"
   xmlns:xlink="http://www.w3.org/1999/xlink"
   xmlns:sodipodi="http://sodipodi.sourceforge.net/DTD/sodipodi-0.dtd"
   xmlns:inkscape="http://www.inkscape.org/namespaces/inkscape"
   version="1.1"
   id="Calque_1"
   x="0px"
   y="0px"
   viewBox="0 0 364.89998 109.5"
   xml:space="preserve"
   sodipodi:docname="logo-color.svg"
   width="364.89999"
   height="109.5"
   inkscape:version="1.0.1 (3bc2e813f5, 2020-09-07)"><metadata
   id="metadata116"><rdf:RDF><cc:Work
       rdf:about=""><dc:format>image/svg+xml</dc:format><dc:type
         rdf:resource="http://purl.org/dc/dcmitype/StillImage" /></cc:Work></rdf:RDF></metadata><defs
   id="defs114" /><sodipodi:namedview
   pagecolor="#ffffff"
   bordercolor="#666666"
   borderopacity="1"
   objecttolerance="10"
   gridtolerance="10"
   guidetolerance="10"
   inkscape:pageopacity="0"
   inkscape:pageshadow="2"
   inkscape:window-width="1920"
   inkscape:window-height="1017"
   id="namedview112"
   showgrid="false"
   inkscape:zoom="2.0300324"
   inkscape:cx="182.45001"
   inkscape:cy="54.750003"
   inkscape:window-x="1912"
   inkscape:window-y="-8"
   inkscape:window-maximized="1"
   inkscape:current-layer="Calque_1" />
<style
   type="text/css"
   id="style87">
	.st0{fill:#AC0066;}
	.st1{clip-path:url(#SVGID_2_);fill:#AC0066;}
	.st2{clip-path:url(#SVGID_2_);fill:#01884D;}
</style>
<g
   id="g109"
   transform="translate(-116.56,-108.8)">
	<path
   class="st0"
   d="m 477.96,211.86 c -0.8,-0.29 -1.36,-0.57 -1.69,-0.86 -0.32,-0.28 -0.48,-0.63 -0.48,-1.02 0,-0.34 0.16,-0.64 0.48,-0.91 0.32,-0.27 0.76,-0.4 1.32,-0.4 0.44,0 0.87,0.09 1.29,0.28 0.42,0.18 0.69,0.33 0.82,0.45 0.13,0.11 0.23,0.21 0.3,0.28 l 1.06,-1.16 -0.14,-0.14 c -0.09,-0.09 -0.24,-0.2 -0.44,-0.33 -0.2,-0.13 -0.43,-0.25 -0.69,-0.38 -0.26,-0.13 -0.59,-0.23 -0.99,-0.32 -0.4,-0.09 -0.81,-0.14 -1.23,-0.14 -1.07,0 -1.93,0.28 -2.6,0.83 -0.66,0.55 -0.99,1.25 -0.99,2.1 0,1.35 0.9,2.35 2.7,3.02 1.01,0.36 1.7,0.71 2.09,1.04 0.39,0.33 0.58,0.73 0.58,1.19 0,0.41 -0.17,0.76 -0.51,1.03 -0.34,0.28 -0.78,0.42 -1.31,0.42 -0.54,0 -1.08,-0.11 -1.61,-0.34 -0.53,-0.23 -0.87,-0.41 -1.03,-0.54 -0.16,-0.13 -0.28,-0.25 -0.38,-0.34 l -1.06,1.14 0.15,0.15 c 0.1,0.11 0.27,0.24 0.49,0.39 0.23,0.15 0.49,0.3 0.79,0.45 0.3,0.15 0.67,0.28 1.13,0.39 0.45,0.11 0.92,0.16 1.4,0.16 1.13,0 2.04,-0.29 2.72,-0.89 0.68,-0.59 1.02,-1.33 1.02,-2.23 -0.01,-1.47 -1.07,-2.58 -3.19,-3.32 m -6.15,6.29 v -1.54 h -6.09 v -3.31 h 5.16 v -1.45 h -5.16 v -2.94 h 5.93 v -1.54 h -7.71 v 10.79 h 7.87 z m -13,0 h 1.83 v -10.79 h -1.83 z m -2.72,-5.63 h -5.32 v 1.31 h 3.5 c -0.13,0.86 -0.52,1.56 -1.16,2.08 -0.64,0.52 -1.4,0.79 -2.28,0.79 -1.1,0 -2.02,-0.38 -2.75,-1.13 -0.74,-0.75 -1.1,-1.68 -1.1,-2.8 0,-1.12 0.37,-2.06 1.1,-2.81 0.73,-0.75 1.65,-1.13 2.75,-1.13 0.35,0 0.69,0.04 1.01,0.13 0.32,0.09 0.59,0.19 0.79,0.29 0.2,0.11 0.39,0.23 0.57,0.38 0.17,0.14 0.29,0.24 0.34,0.3 0.05,0.06 0.09,0.1 0.12,0.13 l 1.23,-1.25 -0.15,-0.17 c -0.1,-0.11 -0.27,-0.25 -0.49,-0.41 -0.23,-0.16 -0.49,-0.32 -0.79,-0.47 -0.3,-0.15 -0.68,-0.29 -1.14,-0.4 -0.46,-0.11 -0.95,-0.17 -1.46,-0.17 -1.59,0 -2.93,0.54 -4.02,1.62 -1.09,1.08 -1.63,2.4 -1.63,3.96 0,1.56 0.53,2.87 1.6,3.93 1.07,1.06 2.4,1.59 3.99,1.59 1.51,0 2.77,-0.52 3.78,-1.55 1.01,-1.03 1.52,-2.31 1.53,-3.83 0,-0.12 -0.01,-0.26 -0.02,-0.39 m -21.43,5.63 h 1.77 v -3.96 h 2.28 l 2.73,3.96 h 2.08 l -2.94,-4.19 c 0.76,-0.21 1.36,-0.6 1.81,-1.18 0.45,-0.58 0.67,-1.26 0.67,-2.03 0,-1 -0.35,-1.81 -1.04,-2.44 -0.69,-0.63 -1.6,-0.95 -2.7,-0.95 h -4.65 v 10.79 z m 4.43,-9.28 c 0.67,0 1.2,0.18 1.6,0.55 0.4,0.37 0.59,0.84 0.59,1.41 0,0.58 -0.2,1.05 -0.59,1.42 -0.39,0.37 -0.93,0.55 -1.6,0.55 h -2.67 v -3.93 z m -7.05,9.28 v -1.54 h -6.09 v -3.31 h 5.16 v -1.45 h -5.16 v -2.94 h 5.93 v -1.54 h -7.7 v 10.79 h 7.86 z m -12.83,0 h 1.73 v -10.79 h -1.73 v 8.01 l -5.83,-8.01 h -1.85 v 10.79 h 1.74 V 210 Z m -14.99,-11.64 h 1.36 l 1.57,-2.54 h -1.8 z m 4.7,11.64 v -1.54 h -6.09 v -3.31 h 5.16 v -1.45 h -5.16 v -2.94 h 5.93 v -1.54 h -7.71 v 10.79 h 7.87 z m -20.55,-6.29 c -0.8,-0.29 -1.36,-0.57 -1.69,-0.86 -0.32,-0.28 -0.49,-0.63 -0.49,-1.02 0,-0.34 0.16,-0.64 0.48,-0.91 0.32,-0.27 0.76,-0.4 1.33,-0.4 0.44,0 0.87,0.09 1.29,0.28 0.42,0.18 0.69,0.33 0.82,0.45 0.13,0.11 0.23,0.21 0.3,0.28 l 1.06,-1.16 -0.14,-0.14 c -0.09,-0.09 -0.24,-0.2 -0.44,-0.33 -0.2,-0.13 -0.43,-0.25 -0.69,-0.38 -0.26,-0.13 -0.59,-0.23 -0.99,-0.32 -0.4,-0.09 -0.81,-0.14 -1.23,-0.14 -1.07,0 -1.93,0.28 -2.6,0.83 -0.66,0.55 -0.99,1.25 -0.99,2.1 0,1.35 0.9,2.35 2.7,3.02 1.01,0.36 1.7,0.71 2.09,1.04 0.38,0.33 0.58,0.73 0.58,1.19 0,0.41 -0.17,0.76 -0.51,1.03 -0.34,0.28 -0.78,0.42 -1.31,0.42 -0.54,0 -1.08,-0.11 -1.61,-0.34 -0.53,-0.23 -0.87,-0.41 -1.03,-0.54 -0.16,-0.13 -0.29,-0.25 -0.38,-0.34 l -1.06,1.14 0.15,0.15 c 0.1,0.11 0.27,0.24 0.49,0.39 0.23,0.15 0.49,0.3 0.79,0.45 0.3,0.15 0.67,0.28 1.13,0.39 0.45,0.11 0.92,0.16 1.4,0.16 1.13,0 2.04,-0.29 2.72,-0.89 0.68,-0.59 1.02,-1.33 1.02,-2.23 -0.01,-1.47 -1.07,-2.58 -3.19,-3.32 m -6.14,6.29 v -1.54 h -6.09 v -3.31 h 5.16 v -1.45 h -5.16 v -2.94 h 5.93 v -1.54 h -7.71 v 10.79 h 7.87 z m -10.02,0 v -1.57 h -5.63 v -9.22 h -1.77 v 10.79 z m -25.46,0 h 1.77 v -3.96 h 2.28 l 2.73,3.96 h 2.08 l -2.94,-4.19 c 0.76,-0.21 1.36,-0.6 1.81,-1.18 0.45,-0.58 0.67,-1.26 0.67,-2.03 0,-1 -0.35,-1.81 -1.04,-2.44 -0.69,-0.63 -1.6,-0.95 -2.71,-0.95 h -4.65 z m 4.44,-9.28 c 0.67,0 1.2,0.18 1.6,0.55 0.4,0.37 0.59,0.84 0.59,1.41 0,0.58 -0.2,1.05 -0.59,1.42 -0.39,0.37 -0.93,0.55 -1.6,0.55 h -2.67 v -3.93 z m -7.06,9.28 v -1.54 h -6.09 v -3.31 h 5.16 v -1.45 h -5.16 v -2.94 h 5.93 v -1.54 h -7.71 v 10.79 h 7.87 z m -13.66,-6.29 c -0.8,-0.29 -1.36,-0.57 -1.69,-0.86 -0.32,-0.28 -0.48,-0.63 -0.48,-1.02 0,-0.34 0.16,-0.64 0.48,-0.91 0.32,-0.27 0.76,-0.4 1.33,-0.4 0.44,0 0.87,0.09 1.29,0.28 0.42,0.18 0.69,0.33 0.82,0.45 0.13,0.11 0.23,0.21 0.3,0.28 l 1.06,-1.16 -0.14,-0.14 c -0.09,-0.09 -0.24,-0.2 -0.44,-0.33 -0.2,-0.13 -0.43,-0.25 -0.69,-0.38 -0.26,-0.13 -0.59,-0.23 -0.99,-0.32 -0.4,-0.09 -0.81,-0.14 -1.23,-0.14 -1.07,0 -1.93,0.28 -2.6,0.83 -0.66,0.55 -0.99,1.25 -0.99,2.1 0,1.35 0.9,2.35 2.7,3.02 1.01,0.36 1.7,0.71 2.09,1.04 0.38,0.33 0.58,0.73 0.58,1.19 0,0.41 -0.17,0.76 -0.51,1.03 -0.34,0.28 -0.78,0.42 -1.31,0.42 -0.54,0 -1.08,-0.11 -1.61,-0.34 -0.53,-0.23 -0.87,-0.41 -1.03,-0.54 -0.16,-0.13 -0.29,-0.25 -0.38,-0.34 l -1.06,1.14 0.15,0.15 c 0.1,0.11 0.27,0.24 0.49,0.39 0.23,0.15 0.49,0.3 0.79,0.45 0.3,0.15 0.67,0.28 1.13,0.39 0.45,0.11 0.92,0.16 1.4,0.16 1.13,0 2.04,-0.29 2.72,-0.89 0.68,-0.59 1.02,-1.33 1.02,-2.23 -0.02,-1.47 -1.08,-2.58 -3.2,-3.32 m -8.67,6.29 h 1.83 v -10.79 h -1.83 z m -11.25,0 h 1.77 v -3.96 h 2.28 l 2.73,3.96 h 2.08 l -2.94,-4.19 c 0.76,-0.21 1.36,-0.6 1.81,-1.18 0.45,-0.58 0.67,-1.26 0.67,-2.03 0,-1 -0.35,-1.81 -1.04,-2.44 -0.69,-0.63 -1.6,-0.95 -2.71,-0.95 h -4.65 z m 4.43,-9.28 c 0.67,0 1.2,0.18 1.6,0.55 0.4,0.37 0.59,0.84 0.59,1.41 0,0.58 -0.2,1.05 -0.59,1.42 -0.39,0.37 -0.93,0.55 -1.6,0.55 h -2.67 v -3.93 z m -12.65,-1.67 c -1.58,0 -2.92,0.54 -4.01,1.62 -1.1,1.08 -1.64,2.4 -1.64,3.96 0,1.56 0.54,2.87 1.61,3.93 1.07,1.06 2.4,1.59 3.98,1.59 1.59,0 2.93,-0.54 4.02,-1.62 1.09,-1.08 1.63,-2.4 1.63,-3.96 0,-1.56 -0.53,-2.87 -1.6,-3.93 -1.07,-1.06 -2.4,-1.59 -3.99,-1.59 m -0.03,9.47 c -1.09,0 -2,-0.38 -2.74,-1.13 -0.74,-0.75 -1.11,-1.68 -1.11,-2.79 0,-1.11 0.37,-2.04 1.11,-2.79 0.74,-0.75 1.65,-1.13 2.74,-1.13 1.1,0 2.02,0.38 2.75,1.13 0.73,0.75 1.1,1.68 1.1,2.79 0,1.11 -0.37,2.04 -1.1,2.79 -0.73,0.75 -1.65,1.13 -2.75,1.13 m -6.86,1.48 v -1.57 h -5.63 v -9.22 h -1.77 v 10.79 z m -13.82,-10.79 h -1.77 l -4.52,10.79 h 1.86 l 1.09,-2.7 h 4.79 l 1.09,2.7 h 1.94 z m -0.94,2.03 1.88,4.65 h -3.78 z m -10.77,8.76 h 1.77 l 4.42,-10.79 h -1.9 l -3.38,8.52 -3.38,-8.52 h -1.99 z"
   id="path89" />
	<path
   class="st0"
   d="M 480.25,132.96 H 469.5 l -20.05,23.92 -19.81,-23.92 H 418.4 l 25.25,30.2 -26.45,31.29 h 10.75 l 21.26,-25.37 21.02,25.37 h 11.23 L 455,162.79 Z m -89.39,5.92 c 5.15,0 9.74,1.81 13.77,5.43 4.03,3.62 6.44,8.13 7.25,13.53 h -43.85 c 0.97,-5.56 3.56,-10.11 7.79,-13.65 4.23,-3.54 9.25,-5.31 15.04,-5.31 m 29.72,25.36 0.24,-2.29 c 0,-8.29 -2.92,-15.4 -8.76,-21.32 -5.84,-5.92 -12.86,-8.88 -21.08,-8.88 -9.1,0 -16.79,3.1 -23.07,9.3 -6.28,6.2 -9.42,13.81 -9.42,22.83 0,9.02 3.08,16.57 9.24,22.65 6.16,6.08 13.83,9.12 23.01,9.12 3.62,0 7.07,-0.52 10.33,-1.57 3.26,-1.05 5.86,-2.21 7.79,-3.5 1.93,-1.29 3.7,-2.78 5.32,-4.47 1.61,-1.69 2.64,-2.86 3.08,-3.5 0.44,-0.64 0.79,-1.17 1.03,-1.57 l -5.8,-4.71 -0.73,1.21 c -0.48,0.72 -1.31,1.65 -2.48,2.78 -1.17,1.13 -2.54,2.25 -4.11,3.38 -1.57,1.13 -3.6,2.07 -6.1,2.84 -2.5,0.77 -5.11,1.15 -7.85,1.15 -6.76,0 -12.38,-2.24 -16.85,-6.7 -4.47,-4.47 -6.74,-10.05 -6.82,-16.73 h 53.03 z m -71.15,-54.35 h -9.06 v 34.79 c -2.58,-4.03 -5.96,-7.19 -10.15,-9.48 -4.19,-2.29 -8.86,-3.44 -14.01,-3.44 -8.54,0 -15.82,3.12 -21.86,9.36 -6.04,6.24 -9.06,13.83 -9.06,22.77 0,8.94 2.96,16.47 8.88,22.59 5.92,6.12 13.15,9.18 21.68,9.18 5.32,0 10.15,-1.23 14.49,-3.68 4.35,-2.46 7.85,-5.86 10.51,-10.21 l 1.09,12.68 h 7.49 z m -31.88,30.2 c 6.68,0 12.26,2.25 16.73,6.76 4.47,4.51 6.7,10.11 6.7,16.79 0,6.76 -2.23,12.4 -6.7,16.91 -4.47,4.51 -10.05,6.76 -16.73,6.76 -6.6,0 -12.12,-2.26 -16.55,-6.76 -4.43,-4.51 -6.64,-10.15 -6.64,-16.91 0,-6.68 2.21,-12.28 6.64,-16.79 4.43,-4.51 9.94,-6.76 16.55,-6.76 M 270.92,108.8 c -1.85,0 -3.38,0.6 -4.59,1.81 -1.21,1.21 -1.81,2.74 -1.81,4.59 0,1.85 0.6,3.4 1.81,4.65 1.21,1.25 2.74,1.87 4.59,1.87 1.85,0 3.4,-0.63 4.65,-1.87 1.25,-1.25 1.87,-2.8 1.87,-4.65 0,-1.85 -0.62,-3.38 -1.87,-4.59 -1.25,-1.21 -2.8,-1.81 -4.65,-1.81 m -4.59,85.64 h 9.3 v -61.48 h -9.3 z"
   id="path91" />
	<g
   id="g107">
		<defs
   id="defs94">
			<rect
   id="SVGID_1_"
   x="116.56"
   y="108.8"
   width="116.58"
   height="108.89" />
		</defs>
		<clipPath
   id="SVGID_2_">
			<use
   xlink:href="#SVGID_1_"
   style="overflow:visible"
   id="use96"
   x="0"
   y="0"
   width="100%"
   height="100%" />
		</clipPath>
		<path
   class="st1"
   d="m 162.26,176.63 v -7.52 l -39.86,25.35 c -5.87,3.73 -7.6,11.52 -3.87,17.39 2.4,3.77 6.48,5.84 10.64,5.84 2.31,0 4.65,-0.64 6.75,-1.97 l 38.53,-24.5 -6.25,-3.89 c -3.7,-2.31 -5.94,-6.35 -5.94,-10.7"
   clip-path="url(#SVGID_2_)"
   id="path99" />
		<path
   class="st1"
   d="m 187.45,150.46 v 6.39 l 39.76,-24.76 c 5.9,-3.68 7.71,-11.45 4.03,-17.35 -3.68,-5.9 -11.45,-7.71 -17.35,-4.03 l -39.44,24.56 7.17,4.56 c 3.63,2.31 5.83,6.32 5.83,10.63"
   clip-path="url(#SVGID_2_)"
   id="path101" />
		<path
   class="st2"
   d="m 168.19,139.16 6.25,-3.89 -38.53,-24.5 c -5.87,-3.73 -13.65,-2 -17.39,3.87 -3.73,5.87 -2,13.65 3.87,17.39 l 39.86,25.35 v -7.52 c 0.01,-4.36 2.25,-8.4 5.94,-10.7"
   clip-path="url(#SVGID_2_)"
   id="path103" />
		<path
   class="st2"
   d="m 227.2,194.4 -39.76,-24.76 v 6.39 c 0,4.31 -2.2,8.32 -5.84,10.63 l -7.17,4.56 39.44,24.56 c 2.07,1.29 4.37,1.91 6.65,1.91 4.21,0 8.32,-2.11 10.7,-5.94 3.69,-5.91 1.89,-13.68 -4.02,-17.35"
   clip-path="url(#SVGID_2_)"
   id="path105" />
	</g>
</g>
</svg>
