<?xml version="1.0" encoding="UTF-8" standalone="no"?>
<!-- Created with Inkscape (http://www.inkscape.org/) -->

<svg
   xmlns:dc="http://purl.org/dc/elements/1.1/"
   xmlns:cc="http://creativecommons.org/ns#"
   xmlns:rdf="http://www.w3.org/1999/02/22-rdf-syntax-ns#"
   xmlns:svg="http://www.w3.org/2000/svg"
   xmlns="http://www.w3.org/2000/svg"
   xmlns:sodipodi="http://sodipodi.sourceforge.net/DTD/sodipodi-0.dtd"
   xmlns:inkscape="http://www.inkscape.org/namespaces/inkscape"
   version="1.1"
   id="svg2"
   xml:space="preserve"
   width="147.20934"
   height="63.557331"
   viewBox="0 0 147.20934 63.557331"
   sodipodi:docname="spie_charte_graphique.compressed.svg"
   inkscape:version="0.92.2 (5c3e80d, 2017-08-06)"><metadata
     id="metadata8"><rdf:RDF><cc:Work
         rdf:about=""><dc:format>image/svg+xml</dc:format><dc:type
           rdf:resource="http://purl.org/dc/dcmitype/StillImage" /><dc:title></dc:title></cc:Work></rdf:RDF></metadata><defs
     id="defs6"><clipPath
       clipPathUnits="userSpaceOnUse"
       id="clipPath18"><path
         d="M 28.913,25.511 H 810.098 V 513.638 H 28.913 Z"
         id="path16"
         inkscape:connector-curvature="0" /></clipPath><clipPath
       clipPathUnits="userSpaceOnUse"
       id="clipPath46"><path
         d="M 0,0 H 839.055 V 595.276 H 0 Z"
         id="path44"
         inkscape:connector-curvature="0" /></clipPath><clipPath
       clipPathUnits="userSpaceOnUse"
       id="clipPath60"><path
         d="M 0,0 H 839.055 V 595.276 H 0 Z"
         id="path58"
         inkscape:connector-curvature="0" /></clipPath></defs><sodipodi:namedview
     pagecolor="#ffffff"
     bordercolor="#666666"
     borderopacity="1"
     objecttolerance="10"
     gridtolerance="10"
     guidetolerance="10"
     inkscape:pageopacity="0"
     inkscape:pageshadow="2"
     inkscape:window-width="1600"
     inkscape:window-height="837"
     id="namedview4"
     showgrid="false"
     fit-margin-top="0"
     fit-margin-left="0"
     fit-margin-right="0"
     fit-margin-bottom="0"
     inkscape:zoom="4.7574569"
     inkscape:cx="74.878484"
     inkscape:cy="54.343365"
     inkscape:window-x="-8"
     inkscape:window-y="-8"
     inkscape:window-maximized="1"
     inkscape:current-layer="g10" /><g
     id="g10"
     inkscape:groupmode="layer"
     inkscape:label="spie_charte_graphique.compressed"
     transform="matrix(1.3333333,0,0,-1.3333333,-931.59331,766.53331)"><g
       id="g40"><g
         id="g42"
         clip-path="url(#clipPath46)"><g
           id="g48"
           transform="translate(749.794,536.637)"><path
             d="m 0,0 c 2.995,0 5.753,1.928 5.753,4.963 0,3.075 -2.325,5.164 -5.752,5.164 h -1.955 c -4.606,0 -8.379,-3.525 -8.379,-8.62 V -9.405 h -7.851 V 1.479 c 0,6.08 6.209,10.883 13.696,10.883 h 5.486 c 5.643,0 12.465,-1.832 12.465,-7.399 0,-5.674 -6.25,-7.399 -12.467,-7.399 H -9.407 V 0 Z"
             style="fill:#1d2953;fill-opacity:1;fill-rule:nonzero;stroke:none"
             id="path50"
             inkscape:connector-curvature="0" /></g></g></g><path
       d="m 776.892,548.999 h -7.851 v -21.767 h 7.851 z"
       style="fill:#1d2953;fill-opacity:1;fill-rule:nonzero;stroke:none"
       id="path52"
       inkscape:connector-curvature="0" /><g
       id="g54"><g
         id="g56"
         clip-path="url(#clipPath60)"><g
           id="g62"
           transform="translate(804.87,537.011)"><path
             d="m 0,0 h -13.57 c 0.546,-4.127 3.792,-7.218 7.616,-7.218 H 4.232 V -9.686 H -8.166 c -7.486,0 -13.704,4.803 -13.704,10.884 0,6.081 6.215,10.884 13.701,10.884 H 4.232 V 9.666 H -5.956 c -3.84,0 -7.096,-3.117 -7.621,-7.27 L 0,2.396 Z"
             style="fill:#1d2953;fill-opacity:1;fill-rule:nonzero;stroke:none"
             id="path64"
             inkscape:connector-curvature="0" /></g><g
           id="g66"
           transform="translate(706.871,544.115)"><path
             d="m 0,0 c 0,-0.875 1.045,-1.661 2.907,-2.168 1.876,-0.51 4.235,-1.103 6.655,-1.69 4.777,-1.157 9.811,-2.7 9.811,-6.281 0,-4.016 -7.231,-6.744 -17.05,-6.744 -3.601,0 -7.023,0.352 -10.499,1.344 l 1.107,1.956 c 3.163,-1.162 7.664,-1.382 10.985,-1.382 4.027,0 7.293,1.28 7.293,3.15 0,1.073 -1.065,1.98 -2.846,2.451 -1.822,0.483 -4.15,1.08 -6.523,1.612 -4.683,1.051 -9.621,2.433 -9.621,6.197 0,3.616 5.231,6.444 14.883,6.444 3.042,0 7.478,-0.397 10.314,-1.528 L 16.164,1.798 C 13.227,2.635 9.89,2.947 6.848,2.947 1.764,2.947 0,1.522 0,0"
             style="fill:#1d2953;fill-opacity:1;fill-rule:nonzero;stroke:none"
             id="path68"
             inkscape:connector-curvature="0" /></g><g
           id="g70"
           transform="translate(762.165,564.101)"><path
             d="m 0,0 c 0,5.964 4.834,10.799 10.798,10.799 5.964,0 10.798,-4.835 10.798,-10.799 0,-5.964 -4.834,-10.799 -10.798,-10.799 C 4.834,-10.799 0,-5.964 0,0"
             style="fill:#ffffff;fill-opacity:1;fill-rule:nonzero;stroke:none"
             id="path72"
             inkscape:connector-curvature="0" /></g><g
           id="g74"
           transform="translate(762.165,564.101)"><path
             d="m 0,0 c 0,5.964 4.834,10.799 10.798,10.799 4.891,0 9.023,-3.252 10.351,-7.711 -0.846,1.257 -1.835,2.41 -2.945,3.433 -0.211,-0.087 -0.429,-0.179 -0.653,-0.277 1.447,-1.128 2.728,-2.46 3.802,-3.952 0.126,-0.58 0.204,-1.178 0.232,-1.79 -1.413,2.021 -3.35,3.829 -5.392,5.103 C 15.894,5.455 15.588,5.294 15.277,5.122 17.662,3.926 19.93,2.091 21.596,-0.053 21.594,-0.522 21.562,-0.983 21.502,-1.435 19.459,1.084 16.751,3.037 13.644,4.151 13.256,3.901 12.865,3.635 12.474,3.353 15.975,2.497 19.067,0.602 21.414,-1.986 21.339,-2.395 21.24,-2.795 21.119,-3.187 18.389,-0.396 14.725,1.467 10.63,1.886 10.185,1.497 9.744,1.083 9.312,0.643 l 0.172,0.001 c 4.404,0 8.408,-1.669 11.438,-4.409 -0.144,-0.387 -0.309,-0.764 -0.495,-1.128 -2.825,2.285 -6.412,3.655 -10.325,3.655 -0.888,0 -1.759,-0.071 -2.609,-0.207 -0.421,-0.547 -0.826,-1.125 -1.21,-1.735 1.411,0.397 2.899,0.609 4.437,0.609 3.484,0 6.707,-1.091 9.362,-2.948 -0.231,-0.387 -0.485,-0.759 -0.761,-1.113 -2.341,1.384 -5.067,2.179 -7.984,2.179 -2.315,0 -4.514,-0.501 -6.493,-1.401 -0.302,-0.667 -0.581,-1.365 -0.829,-2.096 2.327,1.375 5.041,2.164 7.941,2.164 2.428,0 4.724,-0.553 6.774,-1.542 -1.973,-2.134 -4.796,-3.471 -7.932,-3.471 C 4.834,-10.799 0,-5.964 0,0"
             style="fill:#ef3320;fill-opacity:1;fill-rule:nonzero;stroke:none"
             id="path76"
             inkscape:connector-curvature="0" /></g></g></g></g></svg>