<?xml version="1.0" encoding="UTF-8"?>
<svg xmlns="http://www.w3.org/2000/svg" xmlns:xlink="http://www.w3.org/1999/xlink" width="712.37pt" height="184.25pt" viewBox="0 0 712.37 184.25" version="1.1">
<defs>
<clipPath id="clip1">
  <path d="M 525 0 L 712.371094 0 L 712.371094 184 L 525 184 Z M 525 0 "/>
</clipPath>
<clipPath id="clip2">
  <path d="M 0 63 L 526 63 L 526 184.25 L 0 184.25 Z M 0 63 "/>
</clipPath>
</defs>
<g id="surface1">
<g clip-path="url(#clip1)" clip-rule="nonzero">
<path style=" stroke:none;fill-rule:nonzero;fill:rgb(91.763306%,19.999695%,16.862488%);fill-opacity:1;" d="M 703.265625 70.851563 C 697.667969 65.175781 689.800781 61.734375 681.089844 61.734375 C 663.289063 61.734375 649.09375 76.234375 649.09375 93.546875 C 649.09375 96.703125 650.464844 102.703125 650.464844 105.242188 C 650.464844 118.875 639.425781 129.914063 625.804688 129.914063 L 599.394531 129.914063 C 594.332031 129.914063 590.242188 134.015625 590.242188 139.078125 L 590.242188 174.730469 C 590.242188 179.792969 594.332031 183.882813 599.394531 183.882813 L 635.019531 183.882813 C 640.082031 183.882813 644.183594 179.792969 644.183594 174.730469 L 644.183594 148.3125 C 644.183594 134.691406 655.238281 123.644531 668.855469 123.644531 C 671.402344 123.644531 677.382813 125.011719 680.570313 125.011719 C 697.867188 125.011719 712.367188 110.808594 712.367188 92.996094 C 712.367188 84.300781 708.859375 76.523438 703.265625 70.851563 M 635.019531 53.96875 C 640.082031 53.96875 644.183594 49.863281 644.183594 44.804688 L 644.183594 9.152344 C 644.183594 4.09375 640.082031 -0.00390625 635.019531 -0.00390625 L 599.394531 -0.00390625 C 594.34375 -0.00390625 590.242188 4.09375 590.242188 9.148438 C 590.242188 9.148438 590.25 36.433594 590.25 36.484375 C 590.25 44.953125 583.78125 52.246094 581.007813 55.144531 C 578.226563 58.074219 570.714844 64.171875 558.703125 64.203125 L 525.859375 64.203125 L 525.859375 118.367188 L 580 118.367188 L 580 85.503906 C 580.023438 73.5 586.109375 65.984375 589.035156 63.203125 C 591.933594 60.425781 599.222656 53.960938 607.710938 53.960938 C 607.738281 53.960938 635.019531 53.96875 635.019531 53.96875 "/>
</g>
<g clip-path="url(#clip2)" clip-rule="nonzero">
<path style=" stroke:none;fill-rule:nonzero;fill:rgb(12.548828%,19.607544%,38.822937%);fill-opacity:1;" d="M 408.121094 153.5 L 400.921875 153.5 L 400.921875 183.808594 L 418.816406 183.808594 L 418.816406 180.0625 L 408.121094 180.0625 Z M 385.507813 183.808594 L 392.714844 183.808594 L 392.714844 153.5 L 385.507813 153.5 Z M 424.65625 183.808594 L 431.855469 183.808594 L 431.855469 153.5 L 424.65625 153.5 Z M 525.535156 172.75 C 525.34375 171.988281 524.960938 171.21875 524.332031 170.460938 C 523.707031 169.703125 522.824219 168.957031 521.679688 168.234375 C 520.550781 167.527344 519.019531 166.847656 517.097656 166.230469 C 515.410156 165.671875 514.015625 165.035156 512.914063 164.320313 C 511.804688 163.601563 511.253906 162.570313 511.253906 161.253906 C 511.253906 159.90625 511.722656 158.828125 512.691406 158.039063 C 513.644531 157.246094 515.019531 156.851563 516.824219 156.851563 C 518.0625 156.851563 519.195313 156.996094 520.226563 157.300781 C 521.253906 157.582031 522.109375 157.890625 522.785156 158.210938 L 524.34375 154.777344 C 523.496094 154.28125 522.355469 153.875 520.933594 153.554688 C 519.496094 153.222656 517.8125 153.0625 515.875 153.0625 C 514.0625 153.0625 512.453125 153.296875 511.035156 153.769531 C 509.597656 154.234375 508.378906 154.886719 507.402344 155.703125 C 506.402344 156.523438 505.636719 157.476563 505.089844 158.539063 C 504.546875 159.613281 504.277344 160.75 504.277344 161.964844 C 504.277344 162.695313 504.402344 163.441406 504.640625 164.203125 C 504.898438 164.96875 505.300781 165.710938 505.910156 166.429688 C 506.503906 167.148438 507.320313 167.824219 508.347656 168.480469 C 509.382813 169.125 510.691406 169.707031 512.257813 170.253906 C 514.4375 170.9375 515.980469 171.679688 516.902344 172.464844 C 517.824219 173.246094 518.273438 174.207031 518.273438 175.34375 C 518.273438 176.769531 517.734375 177.894531 516.625 178.742188 C 515.515625 179.59375 514.007813 180.023438 512.097656 180.023438 C 510.640625 180.023438 509.363281 179.867188 508.273438 179.574219 C 507.179688 179.28125 506.292969 178.964844 505.621094 178.609375 L 503.878906 182.542969 C 504.925781 183.074219 506.207031 183.472656 507.707031 183.792969 C 509.207031 184.09375 511.117188 184.25 513.441406 184.25 C 515.242188 184.25 516.902344 184.03125 518.429688 183.5625 C 519.945313 183.109375 521.242188 182.46875 522.339844 181.652344 C 523.433594 180.832031 524.269531 179.847656 524.894531 178.71875 C 525.511719 177.585938 525.820313 176.34375 525.820313 175 C 525.820313 174.261719 525.722656 173.507813 525.535156 172.75 M 437.726563 157.246094 L 444.921875 157.246094 L 444.921875 183.808594 L 452.058594 183.808594 L 452.058594 157.246094 L 459.320313 157.246094 L 459.320313 153.5 L 437.726563 153.5 Z M 465.125 183.808594 L 472.324219 183.808594 L 472.324219 153.5 L 465.125 153.5 Z M 480.414063 183.808594 L 499.265625 183.808594 L 499.265625 180.0625 L 487.5625 180.0625 L 487.5625 170.105469 L 497.964844 170.105469 L 497.964844 166.496094 L 487.5625 166.496094 L 487.5625 157.246094 L 499.265625 157.246094 L 499.265625 153.5 L 480.414063 153.5 Z M 366.238281 160.65625 C 366.9375 159.585938 367.851563 158.714844 369 158.0625 C 370.140625 157.394531 371.542969 157.082031 373.195313 157.082031 C 374.347656 157.082031 375.34375 157.179688 376.152344 157.394531 C 376.957031 157.617188 377.636719 157.871094 378.203125 158.121094 L 379.765625 154.777344 C 378.839844 154.25 377.71875 153.835938 376.425781 153.519531 C 375.132813 153.214844 373.597656 153.0625 371.785156 153.0625 C 369.300781 153.0625 367.136719 153.488281 365.28125 154.332031 C 363.441406 155.191406 361.894531 156.34375 360.644531 157.78125 C 359.410156 159.207031 358.46875 160.871094 357.839844 162.75 C 357.199219 164.628906 356.871094 166.597656 356.871094 168.652344 C 356.871094 170.761719 357.183594 172.765625 357.8125 174.640625 C 358.421875 176.507813 359.355469 178.175781 360.589844 179.601563 C 361.828125 181.03125 363.371094 182.164063 365.238281 182.988281 C 367.089844 183.824219 369.246094 184.25 371.734375 184.25 C 375.214844 184.25 377.898438 183.671875 379.765625 182.542969 L 378.085938 178.914063 C 377.40625 179.242188 376.707031 179.492188 375.984375 179.683594 C 375.246094 179.875 374.316406 179.972656 373.195313 179.972656 C 371.617188 179.972656 370.265625 179.65625 369.140625 179.03125 C 368.023438 178.390625 367.089844 177.558594 366.386719 176.492188 C 365.671875 175.445313 365.144531 174.230469 364.8125 172.867188 C 364.464844 171.496094 364.296875 170.085938 364.296875 168.609375 C 364.296875 167.171875 364.453125 165.75 364.753906 164.363281 C 365.058594 162.957031 365.554688 161.726563 366.238281 160.65625 M 310.066406 157.246094 L 321.710938 157.246094 L 321.710938 153.5 L 302.925781 153.5 L 302.925781 183.808594 L 310.066406 183.808594 L 310.066406 170.105469 L 320.421875 170.105469 L 320.421875 166.496094 L 310.066406 166.496094 Z M 332.347656 172.832031 L 336.515625 162.113281 C 336.960938 161.003906 337.246094 160.101563 337.351563 159.460938 L 337.578125 158.425781 L 337.6875 158.425781 L 337.855469 159.460938 C 338.007813 160.101563 338.289063 161.003906 338.707031 162.113281 L 342.699219 172.832031 Z M 334.542969 153.5 L 321.710938 183.808594 L 328.132813 183.808594 L 331.21875 176.027344 L 343.710938 176.027344 L 346.695313 183.808594 L 354.058594 183.808594 L 341.296875 153.5 Z M 315.539063 68.296875 L 315.539063 126.003906 C 315.539063 126.003906 336.5625 131.207031 369.453125 131.207031 C 402.144531 131.207031 423.378906 126.019531 423.378906 126.019531 L 423.378906 106.414063 C 423.378906 106.414063 400.539063 110.898438 369.234375 110.898438 C 354.042969 110.898438 343.976563 109.117188 338.558594 108.574219 C 338.542969 103.84375 338.578125 90.5 338.558594 85.738281 C 344.632813 85.128906 354.816406 83.386719 369.453125 83.386719 C 399.933594 83.5 423.378906 88.035156 423.378906 88.035156 L 423.378906 68.285156 C 423.378906 68.285156 402.464844 63.070313 369.453125 63.070313 C 336.21875 63.070313 315.539063 68.296875 315.539063 68.296875 M 448.96875 129.914063 L 472.597656 129.914063 L 472.597656 64.15625 L 448.96875 64.15625 Z M 58.632813 102.445313 C 53.347656 97.535156 17.53125 63.050781 17.53125 63.050781 L 0 79.023438 L 58.632813 131.691406 L 117.226563 79.046875 L 99.746094 63.03125 C 99.746094 63.03125 63.925781 97.535156 58.632813 102.445313 M 266.550781 105.042969 C 266.550781 105.042969 249.503906 92.414063 224.398438 79.40625 C 202.449219 68.027344 183.105469 64.273438 183.105469 64.273438 L 183.105469 129.914063 L 205.960938 129.914063 L 205.953125 94.839844 C 211.449219 97.070313 217.351563 99.476563 224.363281 103.097656 C 249.464844 116.105469 266.527344 129.914063 266.527344 129.914063 L 289.472656 129.914063 L 289.472656 64.152344 L 266.550781 64.152344 Z M 133.050781 129.914063 L 156.664063 129.914063 L 156.664063 64.15625 L 133.050781 64.15625 L 133.050781 129.914063 "/>
</g>
</g>
</svg>
